<svg width="281" height="87" viewBox="0 0 281 87" fill="none" xmlns="http://www.w3.org/2000/svg">
<path d="M109.516 31.0773C109.516 29.5149 109.919 28.1812 110.726 27.0738C111.534 25.9663 112.509 25.4113 113.654 25.4113C114.796 25.4113 115.771 25.9663 116.584 27.0738C117.394 28.1812 117.802 29.5149 117.802 31.0773C117.802 32.6423 117.394 33.9786 116.584 35.0833C115.771 36.1881 114.796 36.7405 113.654 36.7405C112.509 36.7405 111.534 36.1881 110.726 35.0833C109.919 33.9786 109.516 32.6423 109.516 31.0773ZM119.867 31.0773C119.867 29.3648 119.259 27.9024 118.044 26.687C116.829 25.4718 115.366 24.8643 113.654 24.8643C111.939 24.8643 110.474 25.4718 109.261 26.687C108.048 27.9024 107.443 29.3648 107.443 31.0773C107.443 32.7924 108.048 34.2575 109.261 35.4701C110.474 36.6826 111.939 37.2877 113.654 37.2877C115.366 37.2877 116.829 36.6826 118.044 35.4701C119.259 34.2575 119.867 32.7924 119.867 31.0773ZM127.996 25.4113C128.12 25.4113 128.256 25.4297 128.412 25.4664C128.919 25.5901 129.346 25.8952 129.69 26.3872C130.035 26.8763 130.208 27.4498 130.208 28.1023C130.208 28.7651 130.035 29.3412 129.69 29.8357C129.346 30.3275 128.919 30.6353 128.412 30.7538C128.278 30.7827 128.138 30.7985 127.996 30.7985H124.89V25.4113H127.996ZM127.996 31.3535C128.138 31.3535 128.278 31.3692 128.412 31.4009C128.919 31.5245 129.346 31.8321 129.69 32.3241C130.035 32.8186 130.208 33.3921 130.208 34.0443V35.6647V37.2877H132.273V34.0443C132.273 33.3816 132.092 32.7845 131.734 32.2505C131.374 31.719 130.908 31.3271 130.337 31.0773C130.908 30.8247 131.374 30.4327 131.734 29.9014C132.092 29.3701 132.273 28.7704 132.273 28.1023C132.273 26.9553 131.794 26.0583 130.84 25.4113C130.295 25.0482 129.69 24.8643 129.027 24.8643H122.817V37.2877H124.89V31.3535H127.996ZM135.278 37.2877H137.351V24.8643H135.278V37.2877ZM146.643 25.4113C147.424 25.4113 148.158 25.5611 148.847 25.8638C149.536 26.1635 150.133 26.5687 150.644 27.0763L151.035 26.6845C150.47 26.1241 149.812 25.6796 149.06 25.3534C148.308 25.0271 147.5 24.8643 146.643 24.8643C144.928 24.8643 143.462 25.4718 142.25 26.687C141.037 27.9024 140.432 29.3648 140.432 31.0773C140.432 32.7924 141.037 34.2575 142.25 35.4701C143.462 36.6826 144.928 37.2877 146.643 37.2877C147.5 37.2877 148.308 37.1246 149.06 36.8011C149.812 36.4776 150.47 36.0331 151.035 35.4701C151.596 34.9099 152.04 34.2523 152.367 33.4998C152.693 32.7475 152.856 31.94 152.856 31.0773H152.309H151.922H150.791H147.337V31.6322H150.767C150.693 32.6371 150.436 33.5682 149.989 34.4206C149.607 35.1255 149.126 35.6885 148.542 36.1094C147.961 36.53 147.327 36.7405 146.643 36.7405C145.498 36.7405 144.523 36.1881 143.715 35.0833C142.907 33.9786 142.505 32.6423 142.505 31.0773C142.505 29.5149 142.907 28.1812 143.715 27.0738C144.523 25.9663 145.498 25.4113 146.643 25.4113ZM155.621 37.2877H157.694V24.8643H155.621V37.2877ZM160.775 24.8643V31.0773V37.2877H161.331V27.7944L170.824 37.2877H171.379V34.9151V24.8643H170.824V34.36L161.331 24.8643H160.775ZM180.805 31.0773L183.701 37.2877H185.981L183.085 31.0773L180.187 24.8643H179.579L178.745 26.6607L176.68 31.0773L173.792 37.2877H174.4L177.29 31.0773L179.047 27.3156L180.805 31.0773ZM190.683 24.8643H188.61V37.2877H190.683H196.893V36.7326H190.683V24.8643ZM205.677 24.8643H203.604V31.0773V37.2877H205.677V31.4612L206.703 30.4381L210.757 37.2877H213.161L208.213 28.9255L212.282 24.8643H211.496L205.677 30.6827V24.8643ZM217.947 31.0773C217.947 29.5149 218.349 28.1812 219.157 27.0738C219.964 25.9663 220.94 25.4113 222.084 25.4113C223.226 25.4113 224.202 25.9663 225.015 27.0738C225.825 28.1812 226.232 29.5149 226.232 31.0773C226.232 32.6423 225.825 33.9786 225.015 35.0833C224.202 36.1881 223.226 36.7405 222.084 36.7405C220.94 36.7405 219.964 36.1881 219.157 35.0833C218.349 33.9786 217.947 32.6423 217.947 31.0773ZM228.297 31.0773C228.297 29.3648 227.69 27.9024 226.475 26.687C225.259 25.4718 223.797 24.8643 222.084 24.8643C220.369 24.8643 218.904 25.4718 217.691 26.687C216.479 27.9024 215.874 29.3648 215.874 31.0773C215.874 32.7924 216.479 34.2575 217.691 35.4701C218.904 36.6826 220.369 37.2877 222.084 37.2877C223.797 37.2877 225.259 36.6826 226.475 35.4701C227.69 34.2575 228.297 32.7924 228.297 31.0773ZM236.427 25.4113C236.55 25.4113 236.687 25.4297 236.842 25.4664C237.35 25.5901 237.776 25.8952 238.121 26.3872C238.465 26.8763 238.639 27.4498 238.639 28.1023C238.639 28.7651 238.465 29.3412 238.121 29.8357C237.776 30.3275 237.35 30.6353 236.842 30.7538C236.708 30.7827 236.569 30.7985 236.427 30.7985H233.32V25.4113H236.427ZM236.427 31.3535C236.569 31.3535 236.708 31.3692 236.842 31.4009C237.35 31.5245 237.776 31.8321 238.121 32.3241C238.465 32.8186 238.639 33.3921 238.639 34.0443V35.6647V37.2877H240.704V34.0443C240.704 33.3816 240.522 32.7845 240.164 32.2505C239.804 31.719 239.338 31.3271 238.768 31.0773C239.338 30.8247 239.804 30.4327 240.164 29.9014C240.522 29.3701 240.704 28.7704 240.704 28.1023C240.704 26.9553 240.225 26.0583 239.27 25.4113C238.725 25.0482 238.121 24.8643 237.458 24.8643H231.247V37.2877H233.32V31.3535H236.427ZM245.782 24.8643H243.709V37.2877H245.782H251.992V36.7326H245.782V31.3535H249.919V30.7985H245.782V25.4113H251.992V24.8643H245.782ZM261.597 31.0773L264.493 37.2877H266.773L263.877 31.0773L260.979 24.8643H260.371L259.537 26.6607L257.472 31.0773L254.584 37.2877H255.192L258.082 31.0773L259.839 27.3156L261.597 31.0773ZM269.402 24.8643V31.0773V37.2877H269.957V27.7944L279.45 37.2877H280.005V34.9151V24.8643H279.45V34.36L269.957 24.8643H269.402Z" fill="white"/>
<path d="M110.728 52.7059C110.728 50.2301 111.365 48.1168 112.645 46.362C113.925 44.6073 115.471 43.7278 117.284 43.7278C118.522 43.7278 119.685 43.9654 120.777 44.4363C121.869 44.9115 122.815 45.5534 123.624 46.3663L124.245 45.7453C123.349 44.8575 122.307 44.153 121.115 43.6362C119.923 43.1193 118.643 42.8608 117.284 42.8608C114.567 42.8608 112.245 43.8238 110.324 45.7493C108.402 47.675 107.443 49.9925 107.443 52.7059C107.443 55.4234 108.402 57.7451 110.324 59.6666C112.245 61.588 114.567 62.5467 117.284 62.5467C118.643 62.5467 119.923 62.2883 121.115 61.7756C122.307 61.2629 123.349 60.5587 124.245 59.6666L123.624 59.0413C122.815 59.8542 121.869 60.4961 120.777 60.967C119.689 61.4339 118.522 61.6672 117.284 61.6672C115.471 61.6672 113.925 60.792 112.645 59.0413C111.365 57.2908 110.728 55.1775 110.728 52.7059ZM132.328 52.7059C132.328 50.2301 132.966 48.1168 134.246 46.362C135.525 44.6073 137.072 43.7278 138.885 43.7278C140.694 43.7278 142.24 44.6073 143.528 46.362C144.812 48.1168 145.458 50.2301 145.458 52.7059C145.458 55.1858 144.812 57.3034 143.528 59.0538C142.24 60.8045 140.694 61.6798 138.885 61.6798C137.072 61.6798 135.525 60.8045 134.246 59.0538C132.966 57.3034 132.328 55.1858 132.328 52.7059ZM148.73 52.7059C148.73 49.9925 147.767 47.675 145.841 45.7493C143.916 43.8238 141.598 42.8608 138.885 42.8608C136.167 42.8608 133.846 43.8238 131.924 45.7493C130.003 47.675 129.044 49.9925 129.044 52.7059C129.044 55.4234 130.003 57.7451 131.924 59.6666C133.846 61.588 136.167 62.5467 138.885 62.5467C141.598 62.5467 143.916 61.588 145.841 59.6666C147.767 57.7451 148.73 55.4234 148.73 52.7059ZM156.688 47.3791C156.688 46.3872 156.972 45.5909 157.539 44.995C158.101 44.3948 158.785 44.0114 159.581 43.8404C160.381 43.6695 161.207 43.7112 162.061 43.9737C162.915 44.2322 163.636 44.7282 164.224 45.4493L164.933 44.7448C163.774 43.4736 162.248 42.8359 160.352 42.8359C158.522 42.8359 156.905 43.2651 155.505 44.1197C154.104 44.9741 153.404 46.4664 153.404 48.588C153.404 49.8507 153.875 50.8262 154.821 51.5179C155.763 52.2141 156.801 52.8392 157.935 53.4019C159.064 53.9606 160.098 54.569 161.032 55.2275C161.961 55.882 162.411 56.799 162.378 57.9785C162.378 59.1205 162.023 59.9917 161.315 60.5919C160.61 61.1963 159.793 61.534 158.876 61.6132C157.955 61.6881 157.051 61.5048 156.159 61.0505C155.267 60.6002 154.638 59.8833 154.271 58.908L153.479 59.7124C153.925 60.5461 154.617 61.2212 155.555 61.7464C156.488 62.2717 157.543 62.5342 158.714 62.5342C160.548 62.5342 162.165 62.109 163.566 61.2589C164.962 60.4086 165.662 58.9163 165.662 56.7824C165.662 55.1943 165.195 53.9689 164.257 53.1019C163.324 52.235 162.294 51.5139 161.169 50.9386C160.048 50.3676 159.018 49.8341 158.089 49.3465C157.155 48.8587 156.688 48.2043 156.688 47.3791ZM192.173 42.8608H188.888L181.515 58.6621L174.15 42.8608H170.524V62.5467H171.403V44.7323L179.706 62.5467H180.673L182.003 59.7L188.888 44.9241V62.5467H192.173V42.8608ZM199.756 42.8608H196.472V62.5467H199.756H209.597V61.6672H199.756V53.1437H206.312V52.2641H199.756V43.7278H209.597V42.8608H199.756ZM214.679 42.8608V43.7278H222.336V62.5467H225.62V43.7278H233.277V42.8608H223.978H214.679ZM237.976 62.5467H241.261V42.8608H237.976V62.5467ZM249.428 52.7059C249.428 50.2301 250.065 48.1168 251.345 46.362C252.625 44.6073 254.171 43.7278 255.984 43.7278C257.222 43.7278 258.385 43.9654 259.477 44.4363C260.569 44.9115 261.515 45.5534 262.324 46.3663L262.945 45.7453C262.049 44.8575 261.007 44.153 259.815 43.6362C258.623 43.1193 257.343 42.8608 255.984 42.8608C253.267 42.8608 250.945 43.8238 249.023 45.7493C247.102 47.675 246.143 49.9925 246.143 52.7059C246.143 55.4234 247.102 57.7451 249.023 59.6666C250.945 61.588 253.267 62.5467 255.984 62.5467C257.343 62.5467 258.623 62.2883 259.815 61.7756C261.007 61.2629 262.049 60.5587 262.945 59.6666L262.324 59.0413C261.515 59.8542 260.569 60.4961 259.477 60.967C258.389 61.4339 257.222 61.6672 255.984 61.6672C254.171 61.6672 252.625 60.792 251.345 59.0413C250.065 57.2908 249.428 55.1775 249.428 52.7059ZM271.028 47.3791C271.028 46.3872 271.312 45.5909 271.879 44.995C272.441 44.3948 273.125 44.0114 273.921 43.8404C274.721 43.6695 275.546 43.7112 276.401 43.9737C277.255 44.2322 277.976 44.7282 278.564 45.4493L279.273 44.7448C278.114 43.4736 276.588 42.8359 274.692 42.8359C272.862 42.8359 271.245 43.2651 269.844 44.1197C268.444 44.9741 267.744 46.4664 267.744 48.588C267.744 49.8507 268.215 50.8262 269.161 51.5179C270.103 52.2141 271.141 52.8392 272.275 53.4019C273.404 53.9606 274.438 54.569 275.371 55.2275C276.301 55.882 276.751 56.799 276.718 57.9785C276.718 59.1205 276.363 59.9917 275.655 60.5919C274.95 61.1963 274.133 61.534 273.216 61.6132C272.295 61.6881 271.391 61.5048 270.499 61.0505C269.607 60.6002 268.978 59.8833 268.611 58.908L267.819 59.7124C268.265 60.5461 268.957 61.2212 269.895 61.7464C270.828 62.2717 271.883 62.5342 273.054 62.5342C274.888 62.5342 276.505 62.109 277.906 61.2589C279.302 60.4086 280.002 58.9163 280.002 56.7824C280.002 55.1943 279.535 53.9689 278.597 53.1019C277.664 52.235 276.634 51.5139 275.509 50.9386C274.388 50.3676 273.358 49.8341 272.429 49.3465C271.495 48.8587 271.028 48.2043 271.028 47.3791Z" fill="white"/>
<path fill-rule="evenodd" clip-rule="evenodd" d="M0 44.1688C0 53.1104 7.00817 60.2999 15.7241 60.2999C24.3813 60.2999 31.4482 53.1104 31.4482 44.1688C31.4482 38.9584 29.0152 34.3105 25.2564 31.3576C25.3334 31.398 25.4115 31.4378 25.4912 31.4762C28.4389 32.8967 32.6278 32.3466 34.7462 28.3771V56.7353C34.7462 58.3061 33.6861 59.3937 32.1549 59.3937V60.2999H44.3457V59.3937C42.8733 59.3937 41.7544 58.427 41.7544 56.8562V16.2565C41.7544 14.2627 39.8698 12.8127 37.9853 13.4773L32.0371 15.5314L32.3316 16.4377C34.2161 15.8336 34.7462 17.5252 34.7462 19.096V22.2022C34.6508 23.642 34.2819 25.3202 33.3354 27.3868C31.4086 31.5946 27.7169 32.3837 25.1393 31.1414C22.6557 29.9445 22.2777 26.9584 23.2499 24.8352C24.0807 23.021 25.912 21.8301 28.2829 22.9727C29.6376 23.6255 30.351 25.0768 29.7322 26.4279C29.5731 26.7753 29.3476 27.0671 29.0369 27.2945C29.249 26.8312 29.0453 26.4736 28.7631 26.3378C28.4431 26.1836 28.0559 26.3269 27.9057 26.6549C27.7465 27.0025 27.8864 27.3997 28.206 27.5537C29.1657 28.0162 30.1886 27.2368 30.7543 26.0015C31.541 24.2837 31.4242 21.7299 29.0247 20.5499C27.2375 19.6885 24.369 20.6859 22.946 23.7935C21.7577 26.3882 22.1465 28.7701 23.8589 30.3753C21.4829 28.8925 18.6972 28.0376 15.7241 28.0376C7.00817 28.0376 0 35.2876 0 44.1688ZM41.7337 69.2515C41.8242 66.8798 43.3171 64.0424 45.8574 62.5358C50.2247 59.9455 55.1528 60.9877 60.2373 62.7301C55.5399 68.3222 55.0818 73.8397 57.1429 77.4974C59.4359 81.5663 64.9027 83.1429 71.0528 79.4953C73.6821 77.9359 75.1401 74.5092 73.8004 72.1319C72.8213 70.3947 70.7469 69.2459 68.7444 69.7016C68.4254 69.7688 68.0878 69.9081 67.8204 70.0667C66.6172 70.7803 66.1261 72.2305 66.5899 73.0535C66.796 73.4191 67.1101 73.6599 67.6213 73.7226C69.0209 73.9907 70.4774 72.8826 71.6362 72.1955C72.4829 71.6933 73.203 71.3882 73.6152 72.1197C75.0065 74.5885 73.5603 77.8253 70.9754 79.3583C67.2319 81.5785 62.1641 79.3382 59.768 75.0864C57.9388 71.8404 57.6553 67.4335 60.7555 62.9109C68.0787 65.4605 75.5677 69.2537 82.0296 65.4212C84.3658 64.0357 85.504 61.4025 85.0885 58.8236C87.4177 57.721 89.4756 56.0277 91.0469 53.8355L90.3403 53.2917C88.8686 55.3048 86.9976 56.8754 84.8773 57.9189C84.7363 57.4613 84.5438 57.0101 84.2976 56.5732C81.8181 52.1735 76.7794 52.0259 71.9106 54.0464C70.4096 50.794 69.787 46.7782 69.787 44.1688C69.787 39.1542 72.0838 28.9438 78.503 28.9438C81.9776 28.9438 87.0423 30.0314 89.2214 33.173C88.6913 32.9314 88.1613 32.7501 87.6902 32.7501C85.8645 32.7501 84.1567 34.2606 84.1567 36.375C84.1567 38.3085 85.7467 39.9396 87.6312 39.9396C89.5747 39.9396 91.1648 38.4293 91.1648 36.4355C91.1059 30.9981 84.8045 28.0376 78.503 28.0376C69.787 28.0376 62.7789 35.2876 62.7789 44.1688C62.7789 48.9398 64.7745 53.2116 67.9598 56.1589C66.4947 57.0853 65.1823 58.0347 64.0012 59.0195C62.7532 58.492 61.6268 57.4772 60.8942 56.4333L48.5858 38.7917C48.468 38.6104 48.0557 37.5834 48.3502 36.4959C48.5858 35.5896 49.2926 34.8647 50.5293 34.3209L55.7117 32.0855C56.4773 31.7835 63.0144 28.9438 65.7235 28.9438V28.0376H56.5951V28.9438C60.7764 29.0043 57.0074 30.5147 55.5351 31.1793L45.1113 35.7709C42.8145 36.798 41.9899 39.7583 43.4623 41.8126L54.0628 56.977C54.6025 57.7614 55.0733 58.7571 54.4528 59.1839C51.6285 59.6621 48.7953 60.6104 46.0474 62.2401C43.1953 63.9316 41.731 66.0812 41.3682 68.9193L41.7337 69.2515ZM71.9799 54.1951C76.8096 52.1839 81.704 52.2877 84.1638 56.6526C84.3995 57.071 84.5593 57.5553 84.6406 58.0327C82.7508 58.9203 80.6705 59.3937 78.503 59.3937C75.4751 59.3937 73.3648 57.1217 71.9799 54.1951ZM84.6948 59.0034C84.6736 59.3065 84.6127 59.581 84.5112 59.8015C84.2272 60.458 83.7698 60.9122 83.2349 61.2294C79.9818 63.1588 72.6751 60.1115 64.2419 59.0742C65.3256 58.1302 66.6127 57.1894 68.0784 56.2668C70.8486 58.7788 74.4949 60.2999 78.503 60.2999C80.6621 60.2999 82.7652 59.851 84.6948 59.0034ZM7.00816 44.1688C7.00816 39.1542 9.30496 28.9438 15.7241 28.9438C22.1434 28.9438 24.4402 39.1542 24.4402 44.1688C24.4402 49.1833 22.1434 59.3937 15.7241 59.3937C9.30496 59.3937 7.00816 49.1833 7.00816 44.1688Z" fill="white"/>
<path fill-rule="evenodd" clip-rule="evenodd" d="M45.5454 0.988281C62.0781 0.988281 76.3668 10.8394 83.143 25.1307C83.2056 25.2629 83.4296 25.7513 83.491 25.8843C83.1198 25.7174 82.8031 25.6123 82.5143 25.5288C75.8707 11.4519 61.8135 1.74374 45.5454 1.74374C38.167 1.74374 31.2441 3.74196 25.2607 7.23777C25.0528 7.0708 24.8536 6.89809 24.6624 6.71994C30.8061 3.07536 37.9379 0.988281 45.5454 0.988281ZM17.5887 13.0216C13.9112 16.532 10.8618 20.7254 8.63445 25.4065C8.61517 25.4469 8.45702 25.7724 8.43774 25.8133C8.1058 25.8934 7.85656 25.9385 7.54585 26.0659C7.57575 26.0012 7.82163 25.3992 7.85167 25.3347C10.1184 20.4889 13.2476 16.1486 17.034 12.5213C17.2265 12.6831 17.4113 12.8499 17.5887 13.0216ZM80.2469 67.7419C78.7544 70.0195 77.3619 71.8272 75.483 73.7661C75.3462 73.9073 75.3923 73.8821 75.2886 73.9931C75.3432 73.5238 75.2757 73.0979 75.2214 72.9452C75.3107 72.8494 75.4075 72.778 75.5156 72.665C77.1036 71.0053 77.8833 69.9037 79.1882 67.9929C79.5433 67.9248 79.8962 67.842 80.2469 67.7419ZM62.8771 82.8748C57.5974 85.3476 51.7287 86.7266 45.5454 86.7266C29.0726 86.7266 14.8277 76.9471 8.02198 62.7398C7.93396 62.5562 7.55451 61.7312 7.48438 61.3326L8.36886 61.5905C8.51234 62.0477 8.72387 62.4959 8.79861 62.6494C15.5295 76.4754 29.4564 85.9712 45.5454 85.9712C51.2072 85.9712 56.6009 84.7942 61.5076 82.6677C61.6288 82.6152 61.5625 82.6452 61.6835 82.5913C62.0545 82.7145 62.5058 82.8097 62.8771 82.8748Z" fill="white"/>
<path fill-rule="evenodd" clip-rule="evenodd" d="M15.5099 9.7627C18.851 9.08321 20.4035 6.92848 20.964 4.51075C21.0261 4.24201 21.0402 4.11489 21.0566 4.12535C21.0731 4.11489 21.0872 4.2423 21.1494 4.51075C21.7097 6.92848 23.2606 9.08206 26.602 9.76156C26.7354 9.78865 26.7371 9.81745 26.6034 9.84454C23.2622 10.5239 21.7099 12.6802 21.1494 15.0979C21.0872 15.3665 21.0731 15.4937 21.0566 15.4833C21.0402 15.4937 21.0261 15.3665 20.964 15.0979C20.4035 12.6802 18.8516 10.5255 15.5102 9.84598C15.3953 9.82247 15.3547 9.79424 15.5099 9.7627Z" fill="white"/>
</svg>
