<svg width="624" height="192" viewBox="0 0 624 192" fill="none" xmlns="http://www.w3.org/2000/svg">
<path d="M244.062 67.6714C244.062 64.1894 244.959 61.2174 246.759 58.7494C248.558 56.2814 250.733 55.0445 253.283 55.0445C255.827 55.0445 258.002 56.2814 259.813 58.7494C261.619 61.2174 262.527 64.1894 262.527 67.6714C262.527 71.1589 261.619 74.1369 259.813 76.5989C258.002 79.0609 255.827 80.2919 253.283 80.2919C250.733 80.2919 248.558 79.0609 246.759 76.5989C244.959 74.1369 244.062 71.1589 244.062 67.6714ZM267.129 67.6714C267.129 63.8549 265.775 60.596 263.067 57.8875C260.358 55.1795 257.099 53.8255 253.283 53.8255C249.461 53.8255 246.196 55.1795 243.493 57.8875C240.791 60.596 239.443 63.8549 239.443 67.6714C239.443 71.4934 240.791 74.7584 243.493 77.4609C246.196 80.1629 249.461 81.5114 253.283 81.5114C257.099 81.5114 260.358 80.1629 263.067 77.4609C265.775 74.7584 267.129 71.4934 267.129 67.6714ZM285.245 55.0445C285.521 55.0445 285.825 55.0855 286.171 55.1675C287.303 55.443 288.252 56.123 289.02 57.2195C289.788 58.3094 290.175 59.5875 290.175 61.0415C290.175 62.5185 289.788 63.8024 289.02 64.9044C288.252 66.0004 287.303 66.6864 286.171 66.9504C285.872 67.0149 285.562 67.0499 285.245 67.0499H278.322V55.0445H285.245ZM285.245 68.2869C285.562 68.2869 285.872 68.3219 286.171 68.3924C287.303 68.6679 288.252 69.3534 289.02 70.4499C289.788 71.5519 290.175 72.8299 290.175 74.2834V77.8944V81.5114H294.777V74.2834C294.777 72.8064 294.372 71.4759 293.575 70.2859C292.772 69.1014 291.734 68.2279 290.462 67.6714C291.734 67.1084 292.772 66.2349 293.575 65.0509C294.372 63.8669 294.777 62.5305 294.777 61.0415C294.777 58.4855 293.71 56.4865 291.582 55.0445C290.368 54.2355 289.02 53.8255 287.543 53.8255H273.703V81.5114H278.322V68.2869H285.245V68.2869ZM301.473 81.5114H306.093V53.8255H301.473V81.5114ZM326.799 55.0445C328.54 55.0445 330.176 55.3785 331.712 56.053C333.248 56.721 334.578 57.6239 335.716 58.7549L336.589 57.882C335.329 56.633 333.863 55.6425 332.187 54.9155C330.51 54.1885 328.71 53.8255 326.799 53.8255C322.977 53.8255 319.712 55.1795 317.01 57.8875C314.308 60.596 312.959 63.8549 312.959 67.6714C312.959 71.4934 314.308 74.7584 317.01 77.4609C319.712 80.1629 322.977 81.5114 326.799 81.5114C328.71 81.5114 330.51 81.1479 332.187 80.4269C333.863 79.7059 335.329 78.7154 336.589 77.4609C337.838 76.2124 338.828 74.7469 339.555 73.0699C340.282 71.3934 340.645 69.5939 340.645 67.6714H339.426H338.564H336.044H328.347V68.9079H335.991C335.827 71.1474 335.252 73.2224 334.256 75.1219C333.406 76.6929 332.333 77.9474 331.032 78.8854C329.736 79.8229 328.324 80.2919 326.799 80.2919C324.249 80.2919 322.075 79.0609 320.275 76.5989C318.475 74.1369 317.579 71.1589 317.579 67.6714C317.579 64.1894 318.475 61.2174 320.275 58.7494C322.075 56.2814 324.249 55.0445 326.799 55.0445V55.0445ZM346.809 81.5114H351.428V53.8255H346.809V81.5114ZM358.294 53.8255V67.6714V81.5114H359.531V60.3554L380.687 81.5114H381.924V76.2239V53.8255H380.687V74.9869L359.531 53.8255H358.294ZM402.93 67.6714L409.384 81.5114H414.466L408.012 67.6714L401.552 53.8255H400.198L398.34 57.829L393.738 67.6714L387.302 81.5114H388.656L395.098 67.6714L399.014 59.2884L402.93 67.6714V67.6714ZM424.944 53.8255H420.324V81.5114H424.944H438.784V80.2744H424.944V53.8255ZM458.359 53.8255H453.74V67.6714V81.5114H458.359V68.5269L460.645 66.2469L469.679 81.5114H475.036L464.01 62.8759L473.078 53.8255H471.326L458.359 66.7919V53.8255ZM485.702 67.6714C485.702 64.1894 486.598 61.2174 488.398 58.7494C490.198 56.2814 492.372 55.0445 494.922 55.0445C497.467 55.0445 499.641 56.2814 501.453 58.7494C503.258 61.2174 504.167 64.1894 504.167 67.6714C504.167 71.1589 503.258 74.1369 501.453 76.5989C499.641 79.0609 497.467 80.2919 494.922 80.2919C492.372 80.2919 490.198 79.0609 488.398 76.5989C486.598 74.1369 485.702 71.1589 485.702 67.6714ZM508.768 67.6714C508.768 63.8549 507.414 60.596 504.706 57.8875C501.998 55.1795 498.739 53.8255 494.922 53.8255C491.1 53.8255 487.835 55.1795 485.133 57.8875C482.431 60.596 481.082 63.8549 481.082 67.6714C481.082 71.4934 482.431 74.7584 485.133 77.4609C487.835 80.1629 491.1 81.5114 494.922 81.5114C498.739 81.5114 501.998 80.1629 504.706 77.4609C507.414 74.7584 508.768 71.4934 508.768 67.6714ZM526.884 55.0445C527.16 55.0445 527.464 55.0855 527.81 55.1675C528.942 55.443 529.891 56.123 530.659 57.2195C531.427 58.3094 531.814 59.5875 531.814 61.0415C531.814 62.5185 531.427 63.8024 530.659 64.9044C529.891 66.0004 528.942 66.6864 527.81 66.9504C527.511 67.0149 527.201 67.0499 526.884 67.0499H519.961V55.0445H526.884ZM526.884 68.2869C527.201 68.2869 527.511 68.3219 527.81 68.3924C528.942 68.6679 529.891 69.3534 530.659 70.4499C531.427 71.5519 531.814 72.8299 531.814 74.2834V77.8944V81.5114H536.416V74.2834C536.416 72.8064 536.011 71.4759 535.214 70.2859C534.411 69.1014 533.373 68.2279 532.101 67.6714C533.373 67.1084 534.411 66.2349 535.214 65.0509C536.011 63.8669 536.416 62.5305 536.416 61.0415C536.416 58.4855 535.349 56.4865 533.221 55.0445C532.007 54.2355 530.659 53.8255 529.182 53.8255H515.342V81.5114H519.961V68.2869H526.884V68.2869ZM547.732 53.8255H543.112V81.5114H547.732H561.572V80.2744H547.732V68.2869H556.952V67.0499H547.732V55.0445H561.572V53.8255H547.732ZM582.976 67.6714L589.43 81.5114H594.513L588.058 67.6714L581.599 53.8255H580.244L578.386 57.829L573.785 67.6714L567.348 81.5114H568.702L575.145 67.6714L579.06 59.2884L582.976 67.6714V67.6714ZM600.371 53.8255V67.6714V81.5114H601.608V60.3554L622.764 81.5114H624V76.2239V53.8255H622.764V74.9869L601.608 53.8255H600.371Z" fill="#1DC0CF"/>
<path d="M246.765 115.872C246.765 110.354 248.186 105.645 251.038 101.734C253.889 97.824 257.335 95.864 261.376 95.864C264.135 95.864 266.726 96.3935 269.159 97.443C271.593 98.502 273.701 99.9325 275.503 101.744L276.887 100.36C274.89 98.3814 272.568 96.8115 269.912 95.66C267.255 94.508 264.404 93.932 261.376 93.932C255.32 93.932 250.146 96.078 245.864 100.369C241.582 104.66 239.445 109.825 239.445 115.872C239.445 121.928 241.582 127.102 245.864 131.384C250.146 135.666 255.32 137.802 261.376 137.802C264.404 137.802 267.255 137.226 269.912 136.084C272.568 134.941 274.89 133.372 276.887 131.384L275.503 129.99C273.701 131.802 271.593 133.232 269.159 134.282C266.735 135.322 264.135 135.842 261.376 135.842C257.335 135.842 253.889 133.892 251.038 129.99C248.186 126.089 246.765 121.38 246.765 115.872V115.872ZM294.902 115.872C294.902 110.354 296.323 105.645 299.175 101.734C302.026 97.824 305.472 95.864 309.513 95.864C313.544 95.864 316.99 97.824 319.86 101.734C322.721 105.645 324.161 110.354 324.161 115.872C324.161 121.398 322.721 126.117 319.86 130.018C316.99 133.92 313.544 135.87 309.513 135.87C305.472 135.87 302.026 133.92 299.175 130.018C296.323 126.117 294.902 121.398 294.902 115.872ZM331.453 115.872C331.453 109.825 329.307 104.66 325.016 100.369C320.724 96.078 315.56 93.932 309.513 93.932C303.457 93.932 298.283 96.078 294.001 100.369C289.719 104.66 287.582 109.825 287.582 115.872C287.582 121.928 289.719 127.102 294.001 131.384C298.283 135.666 303.457 137.802 309.513 137.802C315.56 137.802 320.724 135.666 325.016 131.384C329.307 127.102 331.453 121.928 331.453 115.872ZM349.188 104.001C349.188 101.79 349.82 100.016 351.083 98.688C352.337 97.3505 353.86 96.496 355.635 96.115C357.418 95.734 359.257 95.827 361.161 96.412C363.065 96.988 364.672 98.0935 365.982 99.7005L367.561 98.1305C364.979 95.2975 361.579 93.8765 357.353 93.8765C353.275 93.8765 349.671 94.8329 346.55 96.7374C343.429 98.6414 341.869 101.967 341.869 106.695C341.869 109.509 342.918 111.683 345.027 113.224C347.126 114.776 349.439 116.169 351.966 117.423C354.483 118.668 356.786 120.024 358.867 121.491C360.938 122.95 361.942 124.993 361.867 127.622C361.867 130.167 361.078 132.108 359.499 133.446C357.929 134.793 356.108 135.545 354.065 135.722C352.012 135.889 349.996 135.48 348.009 134.468C346.021 133.464 344.618 131.867 343.801 129.693L342.036 131.486C343.03 133.344 344.572 134.848 346.662 136.019C348.742 137.189 351.092 137.774 353.703 137.774C357.79 137.774 361.394 136.827 364.515 134.932C367.626 133.037 369.187 129.712 369.187 124.956C369.187 121.417 368.146 118.686 366.056 116.754C363.976 114.822 361.681 113.215 359.174 111.933C356.675 110.661 354.381 109.472 352.309 108.385C350.229 107.298 349.188 105.84 349.188 104.001V104.001ZM428.266 93.932H420.946L404.515 129.145L388.102 93.932H380.021V137.802H381.981V98.1025L400.484 137.802H402.639L405.602 131.458L420.946 98.53V137.802H428.266V93.932V93.932ZM445.165 93.932H437.846V137.802H445.165H467.096V135.842H445.165V116.847H459.776V114.887H445.165V95.864H467.096V93.932H445.165ZM478.422 93.932V95.864H495.486V137.802H502.805V95.864H519.868V93.932H499.145H478.422ZM530.34 137.802H537.66V93.932H530.34V137.802ZM555.86 115.872C555.86 110.354 557.281 105.645 560.133 101.734C562.984 97.824 566.43 95.864 570.471 95.864C573.229 95.864 575.821 96.3935 578.254 97.443C580.688 98.502 582.796 99.9325 584.598 101.744L585.982 100.36C583.985 98.3814 581.663 96.8115 579.007 95.66C576.351 94.508 573.498 93.932 570.471 93.932C564.415 93.932 559.241 96.078 554.959 100.369C550.677 104.66 548.54 109.825 548.54 115.872C548.54 121.928 550.677 127.102 554.959 131.384C559.241 135.666 564.415 137.802 570.471 137.802C573.498 137.802 576.351 137.226 579.007 136.084C581.663 134.941 583.985 133.372 585.982 131.384L584.598 129.99C582.796 131.802 580.688 133.232 578.254 134.282C575.83 135.322 573.229 135.842 570.471 135.842C566.43 135.842 562.984 133.892 560.133 129.99C557.281 126.089 555.86 121.38 555.86 115.872V115.872ZM603.997 104.001C603.997 101.79 604.628 100.016 605.892 98.688C607.146 97.3505 608.669 96.496 610.443 96.115C612.226 95.734 614.066 95.827 615.97 96.412C617.874 96.988 619.481 98.0935 620.791 99.7005L622.37 98.1305C619.787 95.2975 616.388 93.8765 612.161 93.8765C608.084 93.8765 604.48 94.8329 601.359 96.7374C598.238 98.6414 596.677 101.967 596.677 106.695C596.677 109.509 597.727 111.683 599.835 113.224C601.935 114.776 604.248 116.169 606.774 117.423C609.291 118.668 611.595 120.024 613.676 121.491C615.747 122.95 616.75 124.993 616.676 127.622C616.676 130.167 615.886 132.108 614.307 133.446C612.737 134.793 610.917 135.545 608.873 135.722C606.82 135.889 604.805 135.48 602.817 134.468C600.829 133.464 599.427 131.867 598.609 129.693L596.844 131.486C597.838 133.344 599.38 134.848 601.47 136.019C603.551 137.189 605.901 137.774 608.511 137.774C612.598 137.774 616.202 136.827 619.323 134.932C622.435 133.037 623.995 129.712 623.995 124.956C623.995 121.417 622.955 118.686 620.865 116.754C618.784 114.822 616.49 113.215 613.982 111.933C611.483 110.661 609.189 109.472 607.118 108.385C605.037 107.298 603.997 105.84 603.997 104.001V104.001Z" fill="#1DC0CF"/>
<path fill-rule="evenodd" clip-rule="evenodd" d="M0.000488281 96.846C0.000488281 116.772 15.6183 132.794 35.042 132.794C54.3346 132.794 70.0834 116.772 70.0834 96.846C70.0834 85.2345 64.6614 74.8764 56.2848 68.2958C56.4563 68.3859 56.6304 68.4746 56.8082 68.5602C63.3772 71.7258 72.7121 70.5 77.433 61.6539V124.851C77.433 128.351 75.0705 130.775 71.6582 130.775V132.794H98.8256V130.775C95.5443 130.775 93.0508 128.62 93.0508 125.12V34.6429C93.0508 30.1997 88.8511 26.9683 84.6514 28.4494L71.3958 33.027L72.052 35.0466C76.2517 33.7003 77.433 37.4702 77.433 40.9708V47.8928C77.2203 51.1015 76.3984 54.8414 74.2891 59.4468C69.995 68.8241 61.7681 70.5827 56.0239 67.8141C50.4892 65.1468 49.6467 58.4921 51.8133 53.7605C53.6648 49.7176 57.7459 47.0637 63.0294 49.6099C66.0485 51.0648 67.6382 54.299 66.2592 57.31C65.9046 58.0842 65.4021 58.7345 64.7097 59.2411C65.1823 58.2088 64.7284 57.4119 64.0995 57.1091C63.3865 56.7654 62.5234 57.0848 62.1888 57.8159C61.8341 58.5905 62.1458 59.4755 62.8581 59.8189C64.9967 60.8496 67.2764 59.1127 68.537 56.3598C70.2902 52.5315 70.0299 46.8404 64.6826 44.2108C60.6996 42.2912 54.3071 44.5139 51.1361 51.4391C48.4879 57.2215 49.3543 62.5297 53.1704 66.1069C47.8754 62.8024 41.6676 60.8972 35.042 60.8972C15.6183 60.8972 0.000488281 77.054 0.000488281 96.846V96.846ZM93.0047 152.743C93.2065 147.458 96.5335 141.135 102.195 137.777C111.927 132.005 122.909 134.327 134.24 138.21C123.772 150.672 122.751 162.968 127.344 171.119C132.454 180.187 144.637 183.7 158.343 175.572C164.202 172.097 167.451 164.46 164.466 159.162C162.284 155.291 157.661 152.731 153.199 153.746C152.488 153.896 151.735 154.206 151.139 154.56C148.458 156.15 147.364 159.382 148.397 161.216C148.857 162.031 149.556 162.567 150.696 162.707C153.815 163.304 157.061 160.835 159.643 159.304C161.53 158.185 163.135 157.505 164.053 159.135C167.154 164.637 163.931 171.85 158.17 175.266C149.828 180.214 138.534 175.222 133.195 165.746C129.118 158.512 128.486 148.692 135.395 138.613C151.715 144.295 168.404 152.748 182.805 144.207C188.011 141.12 190.548 135.252 189.622 129.504C194.812 127.047 199.399 123.274 202.9 118.388L201.325 117.176C198.046 121.663 193.876 125.163 189.151 127.488C188.837 126.468 188.408 125.463 187.859 124.489C182.334 114.684 171.105 114.355 160.254 118.858C156.909 111.61 155.522 102.661 155.522 96.846C155.522 85.6708 160.641 62.9168 174.946 62.9168C182.689 62.9168 193.976 65.3404 198.832 72.3416C197.651 71.8031 196.469 71.399 195.42 71.399C191.351 71.399 187.545 74.7652 187.545 79.4773C187.545 83.786 191.088 87.4211 195.288 87.4211C199.619 87.4211 203.163 84.0553 203.163 79.6121C203.032 67.4947 188.989 60.8972 174.946 60.8972C155.522 60.8972 139.904 77.054 139.904 96.846C139.904 107.478 144.351 116.998 151.45 123.566C148.185 125.631 145.26 127.746 142.628 129.941C139.847 128.765 137.337 126.504 135.704 124.178L108.275 84.863C108.012 84.459 107.094 82.1702 107.75 79.7466C108.275 77.727 109.85 76.1115 112.606 74.8997L124.155 69.918C125.861 69.245 140.429 62.9168 146.466 62.9168V60.8972H126.124V62.9168C135.442 63.0516 127.042 66.4174 123.762 67.8984L100.532 78.1311C95.4132 80.4199 93.5757 87.0171 96.857 91.595L120.48 125.389C121.683 127.137 122.732 129.356 121.35 130.307C115.055 131.373 108.742 133.486 102.618 137.118C96.262 140.888 92.9988 145.678 92.1902 152.003L93.0047 152.743V152.743ZM160.409 119.19C171.172 114.708 182.079 114.939 187.561 124.666C188.086 125.599 188.442 126.678 188.624 127.742C184.412 129.72 179.776 130.775 174.946 130.775C168.198 130.775 163.495 125.712 160.409 119.19ZM188.744 129.905C188.697 130.581 188.561 131.192 188.335 131.684C187.702 133.147 186.683 134.159 185.491 134.866C178.241 139.165 161.958 132.374 143.165 130.063C145.58 127.959 148.448 125.862 151.714 123.806C157.888 129.405 166.014 132.794 174.946 132.794C179.757 132.794 184.444 131.794 188.744 129.905ZM15.6183 96.846C15.6183 85.6708 20.7368 62.9168 35.042 62.9168C49.3475 62.9168 54.4659 85.6708 54.4659 96.846C54.4659 108.021 49.3475 130.775 35.042 130.775C20.7368 130.775 15.6183 108.021 15.6183 96.846Z" fill="#1DC0CF"/>
<path fill-rule="evenodd" clip-rule="evenodd" d="M101.499 0.616272C138.343 0.616272 170.185 22.5696 185.286 54.4182C185.426 54.7127 185.925 55.8012 186.062 56.0976C185.235 55.7255 184.529 55.4914 183.885 55.3052C169.08 23.9347 137.753 2.29983 101.499 2.29983C85.0565 2.29983 69.6286 6.7529 56.2944 14.5434C55.8312 14.1713 55.3872 13.7864 54.9613 13.3894C68.6525 5.26736 84.5459 0.616272 101.499 0.616272V0.616272ZM39.1975 27.4328C31.002 35.2558 24.2064 44.6008 19.2427 55.0327C19.1997 55.1228 18.8473 55.8482 18.8043 55.9392C18.0645 56.1177 17.5091 56.2183 16.8167 56.5023C16.8833 56.3579 17.4313 55.0164 17.4982 54.8727C22.5497 44.0738 29.5231 34.4014 37.9611 26.3177C38.3901 26.6783 38.802 27.0501 39.1975 27.4328V27.4328ZM178.832 149.378C175.506 154.454 172.403 158.482 168.216 162.803C167.911 163.118 168.014 163.061 167.783 163.309C167.904 162.263 167.754 161.314 167.633 160.973C167.832 160.76 168.048 160.601 168.289 160.349C171.827 156.65 173.565 154.196 176.473 149.937C177.264 149.786 178.051 149.601 178.832 149.378V149.378ZM140.123 183.102C128.358 188.612 115.279 191.686 101.499 191.686C64.7894 191.686 33.0444 169.892 17.8777 138.231C17.6816 137.821 16.836 135.983 16.6797 135.095L18.6508 135.669C18.9705 136.688 19.4419 137.687 19.6085 138.029C34.6083 168.841 65.6447 190.002 101.499 190.002C114.117 190.002 126.137 187.379 137.071 182.64C137.342 182.523 137.194 182.59 137.463 182.47C138.29 182.745 139.296 182.957 140.123 183.102V183.102Z" fill="#1DC0CF"/>
<path fill-rule="evenodd" clip-rule="evenodd" d="M34.5594 20.17C42.0052 18.6558 45.4648 13.8539 46.7139 8.46596C46.8524 7.86708 46.8839 7.58379 46.9203 7.6071C46.957 7.58379 46.9885 7.86772 47.127 8.46596C48.3758 13.8539 51.832 18.6532 59.2784 20.1675C59.5757 20.2279 59.5794 20.2921 59.2815 20.3524C51.8354 21.8664 48.3761 26.6717 47.127 32.0597C46.9885 32.6583 46.957 32.9416 46.9203 32.9186C46.8839 32.9416 46.8524 32.6583 46.7139 32.0597C45.4648 26.6717 42.0064 21.8699 34.56 20.3556C34.3041 20.3032 34.2135 20.2403 34.5594 20.17Z" fill="#1DC0CF"/>
</svg>
